# 
# Wavefront OBJ file
# Created with Kaydara FBX
# 
mtllib plant_4.mtl

g Plant_4
v -3.691106 0.245950 5.686480
v -3.691105 0.245951 -5.686480
v -73.577164 12.034277 10.000004
v -73.577164 12.034279 -10.000004
v -113.177612 12.041545 15.578679
v -113.177612 12.041548 -15.578676
v -116.905655 15.491455 15.578679
v -116.905663 15.491459 -15.578677
v -0.353351 0.245950 6.770187
v -6.039831 0.245951 -3.079083
v -58.719688 12.034272 45.448830
v -68.719704 12.034276 28.128315
v -90.225349 12.041538 70.080330
v -105.804039 12.041542 43.097260
v -93.453941 15.491448 71.944352
v -109.032608 15.491451 44.961281
v 3.079086 0.266866 5.106006
v -6.770186 0.008014 -0.574584
v -28.128332 14.895850 67.168603
v -45.448856 14.440643 57.178956
v -43.097286 16.591216 104.214143
v -70.080353 15.882066 88.651620
v -44.961304 20.184522 107.282350
v -71.944382 19.475364 91.719834
v 5.686481 0.245950 3.691106
v -5.686481 0.245950 3.691105
v 10.000000 12.034269 73.577157
v -10.000012 12.034269 73.577157
v 15.578672 12.041536 113.177613
v -15.578694 12.041535 113.177613
v 15.578672 15.491443 116.905656
v -15.578691 15.491443 116.905656
v 6.770190 0.245951 0.353351
v -3.079085 0.245950 6.039831
v 45.448837 12.034271 58.719689
v 28.128321 12.034271 68.719704
v 70.080338 12.041538 90.225350
v 43.097267 12.041536 105.804024
v 71.944359 15.491446 93.453942
v 44.961288 15.491444 109.032616
v 6.039833 0.245951 -3.079083
v 0.353349 0.245950 6.770190
v 68.719704 12.034275 28.128335
v 58.719681 12.034273 45.448849
v 105.804047 12.041544 43.097287
v 90.225349 12.041540 70.080369
v 109.032631 15.491451 44.961312
v 93.453926 15.491448 71.944390
v 3.689011 0.185806 -5.686480
v 3.689009 0.185805 5.686481
v 73.763557 10.833512 -9.999994
v 73.763557 10.833510 10.000020
v 113.358879 10.195368 -15.578665
v 113.358864 10.195364 15.578705
v 117.142654 13.584058 -15.578665
v 117.142632 13.584055 15.578705
v 0.353352 0.245952 -6.770190
v 6.039832 0.245950 3.079086
v 58.719719 12.034284 -45.448833
v 68.719719 12.034281 -28.128314
v 90.225380 12.041556 -70.080329
v 105.804047 12.041552 -43.097251
v 93.453964 15.491468 -71.944351
v 109.032669 15.491463 -44.961280
v -3.079084 0.506814 -6.038455
v 6.770191 0.261299 -0.357274
v 28.128347 14.990046 -68.136039
v 45.448864 14.558293 -58.145355
v 43.097313 16.598431 -105.185485
v 70.080383 15.925819 -89.621314
v 44.961330 20.184522 -108.262107
v 71.944412 19.511908 -92.697944
v -5.686480 0.245951 -3.691104
v 5.686479 0.245951 -3.691104
v -10.000008 12.034287 -73.577148
v 10.000002 12.034287 -73.577140
v -15.578680 12.041560 -113.177581
v 15.578678 12.041562 -113.177574
v -15.578678 15.491471 -116.905631
v 15.578680 15.491471 -116.905616
v -6.770189 0.245951 -0.353350
v 3.079084 0.245951 -6.039830
v -45.448837 12.034285 -58.719669
v -28.128323 12.034286 -68.719680
v -70.080338 12.041557 -90.225334
v -43.097271 12.041559 -105.804000
v -71.944359 15.491468 -93.453910
v -44.961296 15.491472 -109.032584
v -6.108520 -0.117505 2.905610
v -0.157702 0.282127 -6.777998
v -68.473587 8.398503 -29.987569
v -58.008724 9.101280 -47.016754
v -105.066360 6.452405 -46.003147
v -88.763512 7.547236 -72.532364
v -108.430336 9.731344 -47.935073
v -92.127480 10.826179 -74.464294
v 31.871037 10.083913 24.121083
v 24.121077 10.083911 31.871039
v 49.319199 11.979266 37.245808
v 37.245792 11.979265 49.319207
v 50.641800 14.040696 38.568410
v 38.568394 14.040695 50.641812
v -3.628925 0.505699 3.273355
v -1.506063 0.505700 -4.649271
v -52.196194 13.270797 -6.519577
v -48.463013 13.270799 -20.451976
v -80.718521 15.765151 -9.996887
v -74.902733 15.765155 -31.701709
v -83.096222 18.478066 -10.633987
v -77.280418 18.478071 -32.338817
v 27.490517 13.044323 -43.790218
v 38.351284 13.044323 -34.676956
v 42.436592 15.496111 -67.754585
v 59.356232 15.496111 -53.557323
v 43.991859 18.162732 -69.608077
v 60.911488 18.162730 -55.410819
v 3.980626 -0.007248 3.417463
v -5.960866 0.294523 0.352178
v -10.363564 15.307250 64.883668
v -27.846252 15.837929 59.493184
v -16.061632 17.831991 100.946366
v -43.297344 18.658720 92.548707
v -16.901468 21.230203 104.004693
v -44.137177 22.056932 95.607041
v -0.279044 0.641598 -4.360242
v 7.323493 0.641598 2.019041
v 4.915164 1.396251 -0.292650
v 1.040185 1.396251 3.582328
vt 0.090148 0.000000
vt 0.519087 0.997585
vt 0.218326 0.000000
vt 0.737461 0.000000
vt 0.819286 0.000000
vt 0.042869 0.000000
vt 0.366165 0.808705
vt 0.259738 1.000000
vt 0.560161 0.000000
vt 0.625464 0.308922
vt 0.542260 0.308922
vt 0.648672 0.483826
vt 0.884857 0.808564
vt 0.819831 0.499981
vt 0.778443 0.983470
vt 0.867145 0.499981
vt 0.908063 0.983470
vt 0.907996 0.999911
vt 0.778376 0.999911
vt 0.690148 0.000000
vt 0.259738 0.501196
vt 0.023030 0.808670
vt 0.389359 1.000000
vt 0.130051 0.485358
vt 0.223580 0.845059
vt 0.130051 0.855897
vt 0.924473 0.212108
vt 0.941191 0.000000
vt 0.519064 0.500367
vt 0.389373 0.983609
vt 0.259751 0.983609
vt 0.000000 0.502428
vt 0.979099 0.602376
vt 0.979118 0.610678
vt 0.467926 0.952455
vt 0.410297 0.674086
vt 0.389405 0.514415
vt 0.507965 0.514415
vt 0.223533 0.855897
vt 0.424650 0.952455
vt 0.519050 0.483826
vt 0.495841 0.308912
vt 0.106208 0.808670
vt 0.486401 0.674086
vt 0.000525 0.485358
vt 1.000000 0.346252
vt 0.129960 0.999263
vt 0.130098 0.845059
vt 0.983455 0.212108
vt 0.689754 0.500104
vt 0.130118 0.501196
vt 0.908066 0.499981
vt 0.236477 0.309581
vt 0.153274 0.309581
vt 0.259672 0.484459
vt 0.801583 0.308623
vt 0.907996 0.483529
vt 0.778376 0.483529
vt 0.801653 0.808564
vt 0.300952 0.500294
vt 0.300738 0.000000
vt 0.737068 0.500104
vt 0.477975 0.000000
vt 0.389429 0.483816
vt 0.920768 0.506857
vt 0.966365 0.506857
vt 0.908066 0.602376
vt 0.129527 0.502428
vt 0.908085 0.610678
vt 0.508415 0.500354
vt 0.648685 0.500104
vt 0.558675 0.500367
vt 0.541895 0.806891
vt 0.648402 0.981681
vt 0.518804 0.981681
vt 0.625084 0.806891
vt 0.000000 0.983430
vt 0.648709 0.999823
vt 0.348266 0.500294
vt 0.039395 0.502428
vt 0.519050 0.483816
vt 0.908066 0.335595
vt 0.908114 0.346252
vt 0.206886 0.719432
vt 0.389856 0.500354
vt 0.928170 0.346252
vt 0.023462 0.310594
vt 0.519027 0.500354
vt 0.348052 0.000000
vt 0.171013 0.000000
vt 0.130051 0.484459
vt 0.129580 0.983430
vt 0.160043 0.501196
vt 0.648685 0.997585
vt 0.412636 0.308912
vt 0.259784 0.500294
vt 0.866599 0.000000
vt 0.389405 0.500294
vt 0.982478 0.000000
vt 0.194165 0.501196
vt 0.146880 0.719432
vt 0.755167 0.308718
vt 0.282960 0.808705
vt 0.950968 0.346252
vt 0.430661 0.000000
vt 0.086694 0.502428
vt 0.999952 0.335595
vt 0.000380 0.999263
vt 0.671892 0.808526
vt 0.778306 0.983429
vt 0.671963 0.308718
vt 0.778376 0.483624
vt 0.648755 0.483624
vt 0.778305 0.500104
vt 0.106605 0.310594
vt 0.648685 0.983429
vt 0.778330 0.999823
vt 0.884786 0.308623
vt 0.778446 0.499981
vt 0.755097 0.808526
vt 0.282948 0.308866
vt 0.389359 0.483771
vt 0.259738 0.483771
vt 0.366152 0.308866
vt 0.389405 0.500354
vt 0.607476 0.000000
vt 0.605980 0.500367
vt 0.648685 0.500367
vn 0.166330 0.986070 0.000000
vn 0.166330 0.986070 0.000000
vn 0.166330 0.986070 0.000000
vn 0.166330 0.986070 0.000000
vn 0.166330 0.986070 0.000000
vn 0.166330 0.986070 0.000000
vn 0.000184 1.000000 0.000000
vn 0.000184 1.000000 0.000000
vn 0.000184 1.000000 0.000000
vn 0.000184 1.000000 0.000000
vn 0.000184 1.000000 0.000000
vn 0.000184 1.000000 0.000000
vn 0.679197 0.733956 -0.000000
vn 0.679197 0.733956 -0.000000
vn 0.679197 0.733956 -0.000000
vn 0.679197 0.733956 -0.000000
vn 0.679197 0.733956 -0.000000
vn 0.679197 0.733956 -0.000000
vn 0.144046 0.986070 -0.083165
vn 0.144046 0.986070 -0.083165
vn 0.144046 0.986070 -0.083165
vn 0.144046 0.986070 -0.083165
vn 0.144046 0.986070 -0.083165
vn 0.144046 0.986070 -0.083165
vn 0.000159 1.000000 -0.000092
vn 0.000159 1.000000 -0.000092
vn 0.000159 1.000000 -0.000092
vn 0.000159 1.000000 -0.000092
vn 0.000159 1.000000 -0.000092
vn 0.000159 1.000000 -0.000092
vn 0.588203 0.733955 -0.339599
vn 0.588203 0.733955 -0.339599
vn 0.588203 0.733955 -0.339599
vn 0.588203 0.733955 -0.339599
vn 0.588203 0.733955 -0.339599
vn 0.588203 0.733955 -0.339599
vn 0.083183 0.978483 -0.188814
vn 0.083183 0.978483 -0.188814
vn 0.083183 0.978483 -0.188814
vn 0.083183 0.978483 -0.188814
vn 0.083183 0.978483 -0.188814
vn 0.083183 0.978483 -0.188814
vn 0.000092 0.998956 -0.045679
vn 0.000092 0.998956 -0.045679
vn 0.000092 0.998956 -0.045679
vn 0.000092 0.998956 -0.045679
vn 0.000092 0.998956 -0.045679
vn 0.000092 0.998956 -0.045679
vn 0.339598 0.706420 -0.621002
vn 0.339598 0.706420 -0.621002
vn 0.339598 0.706420 -0.621002
vn 0.339598 0.706420 -0.621002
vn 0.339598 0.706420 -0.621002
vn 0.339598 0.706420 -0.621002
vn 0.000000 0.986070 -0.166329
vn 0.000000 0.986070 -0.166329
vn 0.000000 0.986070 -0.166329
vn 0.000000 0.986070 -0.166329
vn 0.000000 0.986070 -0.166329
vn 0.000000 0.986070 -0.166329
vn -0.000000 1.000000 -0.000184
vn -0.000000 1.000000 -0.000184
vn -0.000000 1.000000 -0.000184
vn -0.000000 1.000000 -0.000184
vn -0.000000 1.000000 -0.000184
vn -0.000000 1.000000 -0.000184
vn 0.000000 0.733955 -0.679198
vn 0.000000 0.733955 -0.679198
vn 0.000000 0.733955 -0.679198
vn 0.000000 0.733955 -0.679198
vn 0.000000 0.733955 -0.679198
vn 0.000000 0.733955 -0.679198
vn -0.083165 0.986070 -0.144046
vn -0.083165 0.986070 -0.144046
vn -0.083165 0.986070 -0.144046
vn -0.083165 0.986070 -0.144046
vn -0.083165 0.986070 -0.144046
vn -0.083165 0.986070 -0.144046
vn -0.000092 1.000000 -0.000159
vn -0.000092 1.000000 -0.000159
vn -0.000092 1.000000 -0.000159
vn -0.000092 1.000000 -0.000159
vn -0.000092 1.000000 -0.000159
vn -0.000092 1.000000 -0.000159
vn -0.339598 0.733956 -0.588202
vn -0.339598 0.733956 -0.588202
vn -0.339598 0.733956 -0.588202
vn -0.339598 0.733956 -0.588202
vn -0.339598 0.733956 -0.588202
vn -0.339598 0.733956 -0.588202
vn -0.144046 0.986070 -0.083165
vn -0.144046 0.986070 -0.083165
vn -0.144046 0.986070 -0.083165
vn -0.144046 0.986070 -0.083165
vn -0.144046 0.986070 -0.083165
vn -0.144046 0.986070 -0.083165
vn -0.000159 1.000000 -0.000092
vn -0.000159 1.000000 -0.000092
vn -0.000159 1.000000 -0.000092
vn -0.000159 1.000000 -0.000092
vn -0.000159 1.000000 -0.000092
vn -0.000159 1.000000 -0.000092
vn -0.588202 0.733955 -0.339599
vn -0.588202 0.733955 -0.339599
vn -0.588202 0.733955 -0.339599
vn -0.588202 0.733955 -0.339599
vn -0.588202 0.733955 -0.339599
vn -0.588202 0.733955 -0.339599
vn -0.150224 0.988652 0.000000
vn -0.150224 0.988652 0.000000
vn -0.150224 0.988652 0.000000
vn -0.150224 0.988652 0.000000
vn -0.150224 0.988652 0.000000
vn -0.150224 0.988652 0.000000
vn 0.016115 0.999870 0.000000
vn 0.016115 0.999870 0.000000
vn 0.016115 0.999870 0.000000
vn 0.016115 0.999870 0.000000
vn 0.016115 0.999870 0.000000
vn 0.016115 0.999870 0.000000
vn -0.667146 0.744927 -0.000000
vn -0.667146 0.744927 -0.000000
vn -0.667146 0.744927 -0.000000
vn -0.667146 0.744927 -0.000000
vn -0.667146 0.744927 -0.000000
vn -0.667146 0.744927 -0.000000
vn -0.144046 0.986070 0.083165
vn -0.144046 0.986070 0.083165
usemtl Yellow_2
f 2/16/2 4/13/4 1/14/1
f 3/59/3 1/14/1 4/13/4
f 5/15/5 3/59/3 6/17/6
f 3/59/3 4/13/4 6/17/6
f 7/19/7 6/17/6 8/18/8
f 6/17/6 7/19/7 5/15/5
f 10/4/10 11/111/11 9/20/9
f 11/111/11 10/4/10 12/102/12
f 12/102/12 13/113/13 11/111/11
f 13/113/13 12/102/12 14/112/14
f 16/114/16 13/113/13 14/112/14
f 13/113/13 16/114/16 15/71/15
f 18/127/18 19/73/19 17/72/17
f 19/73/19 18/127/18 20/76/20
f 20/76/20 21/75/21 19/73/19
f 21/75/21 20/76/20 22/74/22
f 22/74/22 23/2/23 21/75/21
f 23/2/23 22/74/22 24/94/24
f 27/95/27 26/63/26 28/42/28
f 26/63/26 27/95/27 25/105/25
f 29/64/29 28/42/28 30/81/30
f 28/42/28 29/64/29 27/95/27
f 32/88/32 31/125/31 29/64/29
f 32/88/32 29/64/29 30/81/30
f 34/126/34 35/11/35 33/9/33
f 35/11/35 34/126/34 36/10/36
f 37/41/37 36/10/36 38/12/38
f 36/10/36 37/41/37 35/11/35
f 39/29/39 38/12/38 40/128/40
f 38/12/38 39/29/39 37/41/37
f 44/124/44 41/61/41 42/89/42
f 41/61/41 44/124/44 43/121/43
f 46/122/46 43/121/43 44/124/44
f 43/121/43 46/122/46 45/123/45
f 45/123/45 46/122/46 48/98/48
f 45/123/45 48/98/48 47/96/47
f 50/3/50 51/54/51 49/90/49
f 51/54/51 50/3/50 52/53/52
f 54/55/54 51/54/51 52/53/52
f 51/54/51 54/55/54 53/91/53
f 56/21/56 53/91/53 54/55/54
f 53/91/53 56/21/56 55/51/55
f 59/56/59 58/97/58 60/118/60
f 58/97/58 59/56/59 57/5/57
f 62/57/62 61/58/61 59/56/59
f 62/57/62 59/56/59 60/118/60
f 63/119/63 62/57/62 64/52/64
f 62/57/62 63/119/63 61/58/61
f 116/46/116 115/83/115 113/82/113
f 113/82/113 114/107/114 116/46/116
f 66/106/66 67/22/67 65/80/65
f 67/22/67 66/106/66 68/43/68
f 69/77/69 68/43/68 70/92/70
f 68/43/68 69/77/69 67/22/67
f 71/108/71 70/92/70 72/47/72
f 70/92/70 71/108/71 69/77/69
f 76/120/76 73/50/73 74/62/74
f 73/50/73 76/120/76 75/109/75
f 76/120/76 78/110/78 75/109/75
f 75/109/75 78/110/78 77/116/77
f 78/110/78 79/78/79 77/116/77
f 79/78/79 78/110/78 80/117/80
f 82/79/82 83/103/83 81/60/81
f 83/103/83 82/79/82 84/7/84
f 86/30/86 83/103/83 84/7/84
f 83/103/83 86/30/86 85/31/85
f 88/23/88 85/31/85 86/30/86
f 85/31/85 88/23/88 87/8/87
f 91/87/91 89/6/89 92/115/92
f 92/115/92 89/6/89 90/1/90
f 93/45/93 92/115/92 94/24/94
f 92/115/92 93/45/93 91/87/91
f 96/68/96 95/32/95 93/45/93
f 96/68/96 93/45/93 94/24/94
f 98/66/98 100/33/100 97/65/97
f 97/65/97 100/33/100 99/67/99
f 101/69/101 100/33/100 102/34/102
f 100/33/100 101/69/101 99/67/99
f 104/100/104 106/84/106 103/93/103
f 105/101/105 103/93/103 106/84/106
f 107/48/107 105/101/105 108/25/108
f 105/101/105 106/84/106 108/25/108
f 109/26/109 108/25/108 110/39/110
f 108/25/108 109/26/109 107/48/107
f 113/82/113 112/49/112 114/107/114
f 112/49/112 113/82/113 111/27/111
f 119/44/119 117/35/117 120/36/120
f 120/36/120 117/35/117 118/40/118
f 119/44/119 122/37/122 121/38/121
f 122/37/122 119/44/119 120/36/120
f 122/37/122 123/70/123 121/38/121
f 123/70/123 122/37/122 124/85/124
f 125/28/125 112/49/112 111/27/111
f 112/49/112 125/28/125 126/99/126
f 128/104/128 97/65/97 127/86/127
f 97/65/97 128/104/128 98/66/98
